<?xml version="1.0" standalone="no"?><!DOCTYPE svg PUBLIC "-//W3C//DTD SVG 1.1//EN" "http://www.w3.org/Graphics/SVG/1.1/DTD/svg11.dtd"><svg class="icon" width="200px" height="200.00px" viewBox="0 0 1024 1024" version="1.1" xmlns="http://www.w3.org/2000/svg"><path fill="#333333" d="M101.12 663.84h518.56A36.16 36.16 0 0 0 656 628.48 35.68 35.68 0 0 0 619.68 592H101.12a35.84 35.84 0 0 0 0 71.52zM774.4 657.92l173.12-120.96a33.6 33.6 0 0 0 2.08-48l-2.56-2.56-172.96-120.32a30.24 30.24 0 0 0-41.92 5.44 29.12 29.12 0 0 0-5.6 17.92v244.8a29.92 29.92 0 0 0 30.24 29.6 29.44 29.44 0 0 0 17.6-5.92zM922.88 824.64H98.4A35.68 35.68 0 1 0 101.12 896h824.48a35.68 35.68 0 1 0-2.72-71.36zM101.12 432H619.2a7.68 7.68 0 0 0 2.72 0 35.68 35.68 0 1 0-2.72-71.36H98.4A35.68 35.68 0 1 0 101.12 432zM101.12 199.36h824.48A35.68 35.68 0 1 0 922.88 128H101.12a35.68 35.68 0 0 0 0 71.36z" /></svg>