<?xml version="1.0" standalone="no"?><!DOCTYPE svg PUBLIC "-//W3C//DTD SVG 1.1//EN" "http://www.w3.org/Graphics/SVG/1.1/DTD/svg11.dtd"><svg class="icon" width="200px" height="200.00px" viewBox="0 0 1024 1024" version="1.1" xmlns="http://www.w3.org/2000/svg"><path fill="#333333" d="M922.88 360.16H404.32A36.16 36.16 0 0 0 368 395.52 35.68 35.68 0 0 0 404.32 432h518.56a35.84 35.84 0 0 0 0-71.52zM249.6 366.08L76.48 487.04a33.6 33.6 0 0 0-2.08 48l2.56 2.56 172.96 120.96a30.24 30.24 0 0 0 41.92-5.44 29.12 29.12 0 0 0 5.6-17.92V389.76a29.92 29.92 0 0 0-30.24-29.6 29.44 29.44 0 0 0-17.6 5.92zM101.12 199.36h824.48A35.68 35.68 0 1 0 922.88 128H98.4a35.68 35.68 0 1 0 2.72 71.36zM922.88 592H402.08a35.68 35.68 0 1 0 2.72 71.36h520.8a35.68 35.68 0 1 0-2.72-71.36zM922.88 824.64H98.4A35.68 35.68 0 1 0 101.12 896h821.76a35.68 35.68 0 0 0 0-71.36z" /></svg>